P3
4 4
255
255 0 -2147483648
233 0 105
152 0 205
194 0 166
255 0 -2147483648
38 0 253
255 0 -2147483648
228 0 115
255 0 -2147483648
168 0 192
127 0 221
245 0 71
134 0 217
20 0 255
255 0 -2147483648
255 0 -2147483648
